<svg id="svg" xmlns="http://www.w3.org/2000/svg" xmlns:xlink="http://www.w3.org/1999/xlink" width="400" height="459.5041322314049" viewBox="0, 0, 400,459.5041322314049"><g id="svgg"><path id="path0" d="M150.924 2.537 C 150.100 3.932,149.607 5.255,149.829 5.477 C 150.234 5.882,153.719 1.416,153.719 0.492 C 153.719 -0.802,152.271 0.257,150.924 2.537 M333.444 2.427 C 334.630 4.721,336.364 6.474,336.364 5.380 C 336.364 4.174,333.766 -0.000,333.015 -0.000 C 332.561 -0.000,332.754 1.092,333.444 2.427 M114.781 8.528 C 93.976 16.315,77.091 75.521,75.893 144.886 C 75.792 150.709,75.475 155.619,75.188 155.797 C 73.794 156.658,70.711 131.175,70.037 113.223 L 69.835 107.851 66.597 112.781 C 54.789 130.756,39.689 167.585,33.192 194.252 C 11.277 284.206,38.504 362.119,108.529 409.841 C 114.926 414.200,113.811 412.606,102.209 400.798 C 56.807 354.592,34.845 298.993,40.051 243.438 C 40.762 235.854,41.135 236.071,44.216 245.868 C 53.462 275.264,71.535 300.422,94.828 316.321 C 105.336 323.493,106.998 324.238,110.175 323.202 C 138.987 313.802,174.589 317.744,194.149 332.500 C 199.028 336.181,202.156 336.327,208.089 333.152 C 209.035 332.646,210.511 332.231,211.369 332.231 C 212.228 332.231,216.317 330.583,220.457 328.568 C 251.337 313.538,269.342 288.938,274.330 254.959 C 278.546 226.240,279.816 220.488,286.507 199.804 C 288.962 192.215,289.639 191.381,290.873 194.421 C 297.652 211.122,301.512 240.317,299.205 257.438 C 296.616 276.649,297.153 282.981,302.192 292.648 C 307.627 303.074,324.059 316.233,327.784 313.141 C 335.330 306.879,347.112 279.592,350.546 260.426 C 353.535 243.745,352.207 207.464,348.228 197.095 C 347.665 195.629,355.415 194.667,362.238 195.355 C 367.306 195.867,367.328 195.860,364.575 194.630 C 360.541 192.829,351.176 192.978,348.665 194.884 C 346.150 196.792,336.280 201.018,335.698 200.436 C 335.455 200.193,337.949 198.788,341.239 197.312 L 347.222 194.628 346.750 191.577 C 346.490 189.900,345.906 187.552,345.453 186.360 L 344.629 184.194 340.478 186.453 C 338.195 187.696,334.248 190.694,331.707 193.116 C 326.208 198.358,325.379 198.693,328.895 194.254 C 332.030 190.295,336.570 186.613,340.808 184.592 C 344.321 182.917,344.494 181.269,341.827 174.885 C 337.955 165.618,316.529 184.097,316.529 196.703 C 316.529 197.607,316.180 198.347,315.754 198.347 C 314.543 198.347,315.693 192.617,317.930 187.506 C 321.133 180.190,328.362 174.055,336.303 171.917 C 340.302 170.840,340.386 170.243,337.499 163.405 C 330.460 146.737,343.205 109.834,366.813 78.529 C 386.852 51.955,392.301 31.675,381.780 22.822 C 375.266 17.341,349.267 25.347,318.989 42.160 C 314.906 44.426,311.426 46.281,311.255 46.281 C 310.385 46.281,286.414 60.282,275.207 67.337 L 262.397 75.400 253.719 73.665 C 233.625 69.649,217.460 69.374,195.271 72.673 C 179.388 75.034,180.170 73.495,184.623 93.629 C 186.300 101.213,184.826 99.842,181.880 91.078 C 180.397 86.667,178.691 81.942,178.089 80.579 C 177.487 79.215,175.049 73.644,172.673 68.198 C 153.620 24.543,131.875 2.129,114.781 8.528 M128.512 28.494 C 140.503 33.337,154.521 57.716,163.213 88.843 C 164.811 94.566,169.386 113.336,169.407 114.256 C 169.473 117.122,162.162 112.304,159.716 107.868 C 158.507 105.678,156.551 107.380,153.301 113.448 C 152.028 115.824,150.837 117.944,150.655 118.158 C 149.905 119.038,148.773 115.821,148.263 111.364 C 147.965 108.750,147.452 106.612,147.123 106.612 C 144.476 106.612,136.954 114.926,131.708 123.650 C 130.074 126.367,129.332 124.029,129.556 116.867 C 129.803 108.935,129.235 108.392,124.664 112.190 C 120.380 115.750,118.467 118.197,115.615 123.770 C 112.539 129.779,112.019 129.743,112.307 123.541 C 112.439 120.680,112.183 119.008,111.612 119.008 C 110.015 119.008,102.756 127.279,99.567 132.732 C 95.465 139.745,95.590 140.093,96.211 123.347 C 98.897 50.929,109.194 20.692,128.512 28.494 M348.554 181.584 C 347.304 181.773,346.281 182.278,346.281 182.707 C 346.281 183.645,355.428 182.762,356.570 181.713 C 357.359 180.988,352.953 180.917,348.554 181.584 M239.541 187.170 C 243.959 192.202,247.133 200.075,247.045 205.785 C 247.011 207.939,246.531 206.883,245.164 201.653 C 243.131 193.876,241.799 191.381,236.837 186.058 C 234.789 183.860,234.155 182.796,235.217 183.340 C 236.178 183.832,238.123 185.555,239.541 187.170 M217.522 188.361 C 224.703 191.120,233.446 199.776,235.122 205.785 C 235.439 206.921,234.164 205.528,232.290 202.688 C 226.680 194.188,218.270 188.789,207.438 186.731 L 203.719 186.025 208.264 186.288 C 210.764 186.432,214.930 187.365,217.522 188.361 M216.942 201.451 C 219.669 202.843,223.202 205.384,224.793 207.097 L 227.686 210.211 223.432 207.164 C 214.382 200.680,206.066 198.427,196.735 199.929 C 190.823 200.882,189.249 200.547,193.504 199.243 C 199.212 197.495,211.451 198.648,216.942 201.451 M219.075 239.341 C 232.577 243.130,238.902 259.648,230.120 268.183 C 212.379 285.425,190.331 278.264,188.496 254.665 C 187.920 247.251,186.828 245.455,182.900 245.455 C 179.324 245.455,180.981 244.184,186.983 242.325 C 201.194 237.923,210.829 237.027,219.075 239.341 M336.859 241.529 C 336.201 242.552,335.031 246.921,334.259 251.240 C 330.092 274.534,318.480 283.765,304.721 274.720 C 301.124 272.356,301.094 271.117,304.398 261.157 L 306.180 255.785 306.602 260.885 C 307.942 277.060,324.015 270.219,322.977 253.915 C 322.554 247.274,316.529 241.145,316.529 247.355 C 316.529 250.503,312.604 252.755,311.168 250.430 C 308.615 246.301,321.366 239.744,332.044 239.696 L 338.055 239.669 336.859 241.529 M212.147 245.248 C 211.955 245.589,211.554 246.890,211.256 248.140 C 210.775 250.151,210.331 250.413,207.402 250.413 C 202.508 250.413,199.943 258.771,202.765 265.525 C 207.441 276.715,220.850 264.040,218.066 251.060 C 217.118 246.639,213.409 242.997,212.147 245.248 M164.463 300.860 C 182.261 303.668,199.139 313.789,206.161 325.864 C 209.198 331.086,208.434 331.656,205.104 326.652 C 200.171 319.238,193.304 313.230,184.871 308.949 C 178.925 305.930,165.349 301.659,161.642 301.640 C 160.239 301.633,158.533 301.267,157.851 300.826 C 156.179 299.745,157.439 299.752,164.463 300.860 M344.876 318.279 C 342.512 318.666,339.350 319.731,337.851 320.645 C 334.492 322.693,334.671 322.694,341.189 320.650 C 344.071 319.747,348.689 319.008,351.451 319.008 C 354.214 319.008,356.319 318.874,356.129 318.710 C 355.197 317.903,348.692 317.653,344.876 318.279 M125.455 321.566 C 115.792 323.024,110.043 324.423,110.836 325.123 C 112.040 326.186,127.644 331.685,134.386 333.422 C 151.421 337.812,172.910 339.182,189.245 336.921 L 196.259 335.950 191.725 332.960 C 173.957 321.242,152.290 317.516,125.455 321.566 M257.103 329.647 C 250.641 331.455,254.418 338.688,267.355 349.281 L 271.488 352.664 271.488 358.766 L 271.488 364.868 265.289 368.391 C 250.084 377.033,224.702 380.111,206.612 375.508 C 205.225 375.155,204.817 375.256,205.372 375.815 C 211.128 381.619,243.587 380.791,264.683 374.302 L 270.275 372.581 272.584 375.054 C 276.414 379.153,280.358 379.842,287.650 377.683 C 309.115 371.329,320.286 358.385,322.778 336.983 C 323.561 330.252,322.849 331.084,320.656 339.463 C 316.223 356.403,307.309 366.587,293.065 370.986 C 276.429 376.125,270.099 369.094,284.058 360.983 C 296.778 353.593,304.053 343.953,304.821 333.471 L 305.185 328.512 301.458 331.944 C 294.410 338.436,283.504 338.501,267.550 332.144 C 263.106 330.374,259.385 328.963,259.281 329.008 C 259.176 329.053,258.196 329.341,257.103 329.647 M335.950 333.442 C 333.570 334.638,333.704 334.669,339.316 334.217 C 350.116 333.347,358.332 335.921,366.823 342.837 C 370.787 346.066,371.146 346.223,369.601 344.054 C 363.215 335.085,344.455 329.169,335.950 333.442 M262.879 338.265 C 269.065 343.947,270.302 344.628,274.443 344.628 C 279.175 344.628,280.359 345.935,277.630 348.145 C 273.495 351.493,266.545 347.927,261.347 339.791 C 258.209 334.879,258.681 334.409,262.879 338.265 M143.388 340.893 C 140.661 341.475,136.997 342.206,135.246 342.516 C 128.378 343.736,133.360 343.786,142.493 342.588 C 153.199 341.185,163.343 341.026,172.727 342.113 C 180.685 343.036,180.926 342.687,173.492 341.008 C 166.387 339.403,150.653 339.344,143.388 340.893 M298.738 346.612 C 297.288 348.825,294.777 350.032,293.396 349.178 C 291.920 348.266,292.497 347.463,295.376 346.422 C 296.923 345.862,298.454 344.765,298.778 343.983 C 299.152 343.080,299.500 342.920,299.735 343.545 C 299.938 344.085,299.490 345.465,298.738 346.612 M304.511 344.683 C 304.212 345.168,304.165 345.763,304.408 346.006 C 305.000 346.598,306.612 345.554,306.612 344.579 C 306.612 343.523,305.185 343.594,304.511 344.683 M333.373 346.303 C 340.737 348.193,346.896 351.981,352.384 357.995 C 356.151 362.122,357.608 363.292,357.246 361.902 C 355.710 355.988,342.211 346.477,334.440 345.834 C 330.258 345.488,330.235 345.498,333.373 346.303 M211.323 347.630 C 210.161 348.792,210.793 349.587,212.879 349.587 C 214.219 349.587,214.886 349.202,214.670 348.554 C 214.272 347.359,212.174 346.780,211.323 347.630 M225.379 349.276 C 223.960 350.696,224.920 352.066,227.333 352.066 C 229.306 352.066,229.812 351.743,229.598 350.620 C 229.316 349.140,226.433 348.222,225.379 349.276 M237.588 350.438 C 237.267 350.958,237.375 351.755,237.828 352.208 C 239.031 353.412,242.562 352.689,242.562 351.240 C 242.562 349.740,238.431 349.074,237.588 350.438 M249.158 350.438 C 248.837 350.958,248.945 351.755,249.398 352.208 C 250.602 353.412,254.132 352.689,254.132 351.240 C 254.132 349.740,250.001 349.074,249.158 350.438 M169.008 352.864 C 168.025 353.270,171.257 353.498,176.983 353.426 C 182.278 353.360,186.440 353.027,186.232 352.686 C 185.722 351.852,171.093 352.004,169.008 352.864 M327.273 353.734 C 329.678 355.598,331.212 355.891,329.826 354.222 C 329.301 353.589,328.047 352.860,327.039 352.602 C 325.298 352.155,325.309 352.212,327.273 353.734 M212.329 356.240 C 211.442 356.788,211.398 357.183,212.141 357.927 C 213.180 358.965,215.702 358.407,215.702 357.139 C 215.702 355.982,213.637 355.432,212.329 356.240 M223.526 358.723 C 222.825 359.857,224.662 361.250,226.446 360.938 C 227.128 360.819,227.686 360.168,227.686 359.493 C 227.686 357.995,224.357 357.378,223.526 358.723 M236.570 359.225 C 234.940 359.883,235.365 361.818,237.273 362.423 C 239.347 363.081,240.911 361.779,240.218 359.973 C 239.723 358.681,238.526 358.436,236.570 359.225 M249.158 360.355 C 248.837 360.875,248.945 361.672,249.398 362.125 C 250.602 363.329,254.132 362.607,254.132 361.157 C 254.132 359.658,250.001 358.992,249.158 360.355 M180.992 362.810 L 178.926 363.472 180.992 363.456 C 182.128 363.448,184.174 363.157,185.537 362.810 L 188.017 362.179 185.537 362.164 C 184.174 362.155,182.128 362.446,180.992 362.810 M190.368 384.091 C 191.925 386.610,207.268 393.603,216.344 395.930 C 237.576 401.375,256.556 398.681,274.172 387.721 C 279.526 384.390,278.383 384.159,271.281 387.136 C 246.022 397.724,220.257 396.624,190.980 383.706 C 190.261 383.388,190.025 383.536,190.368 384.091 " stroke="none" fill="#000000" fill-rule="evenodd"></path></g></svg>